<?xml version="1.0"?>
<svg xmlns="http://www.w3.org/2000/svg" width="80" height="80" viewBox="0 0 80 80" fill="none">
  <path d="M43.9793 52.6929H35.8297L31.7649 45.6523L27.6998 52.6929H19.5527L31.766 31.5388L43.9793 52.6929Z" fill="#F54943"></path>
  <path d="M60.2612 52.6915H52.1232L35.838 24.4847L39.9069 17.437L60.2612 52.6915Z" fill="#F54943"></path>
  <path d="M29.0389 9.56886L27.6558 3.54561L25.7943 3.97306L25.5101 2.73527L30.6269 1.56035L30.9111 2.79814L29.0788 3.21887L30.4619 9.24212L29.0389 9.56886ZM40.3459 8.14869C39.796 8.08706 39.2933 7.93346 38.8378 7.68787C38.389 7.44302 38.0083 7.12866 37.6958 6.7448C37.384 6.35431 37.1547 5.91605 37.0079 5.43001C36.8611 4.94397 36.8182 4.42932 36.8791 3.88606C36.94 3.34279 37.0925 2.85004 37.3366 2.40781C37.5873 1.96632 37.9075 1.593 38.2973 1.28784C38.687 0.982685 39.1279 0.7604 39.6198 0.620987C40.1183 0.482316 40.6459 0.444165 41.2024 0.506535C41.7589 0.568905 42.2616 0.722513 42.7104 0.967361C43.1659 1.21295 43.5499 1.52768 43.8624 1.91154C44.175 2.2954 44.4013 2.72998 44.5415 3.21528C44.6882 3.70131 44.7312 4.21597 44.6703 4.75923C44.6094 5.3025 44.4536 5.79488 44.2029 6.23636C43.9588 6.67859 43.6382 7.05523 43.2411 7.36627C42.8513 7.67143 42.4072 7.89334 41.9086 8.03201C41.4167 8.17143 40.8958 8.21032 40.3459 8.14869ZM40.4929 6.8369C40.8441 6.87626 41.1721 6.85264 41.4769 6.76606C41.7892 6.67359 42.0705 6.52735 42.321 6.32734C42.5715 6.12733 42.7735 5.88163 42.9269 5.59023C43.0877 5.29296 43.1885 4.96212 43.2293 4.59774C43.2702 4.23335 43.2447 3.89173 43.153 3.57286C43.0679 3.25474 42.9253 2.97043 42.7253 2.71992C42.5261 2.4628 42.284 2.2579 41.9993 2.10524C41.7211 1.95331 41.4065 1.85768 41.0554 1.81832C40.7042 1.77897 40.3729 1.80221 40.0614 1.88806C39.7565 1.97464 39.4785 2.12125 39.2272 2.32789C38.9767 2.5279 38.7715 2.77323 38.6114 3.06388C38.458 3.35527 38.3609 3.68316 38.3201 4.04755C38.2792 4.41194 38.301 4.7565 38.3853 5.08125C38.4771 5.40012 38.6229 5.6848 38.8229 5.9353C39.023 6.1858 39.2617 6.39033 39.5391 6.54888C39.8238 6.70154 40.1418 6.79755 40.4929 6.8369ZM49.26 8.79517L52.6307 2.1513L55.1456 3.42718C55.6033 3.65944 55.9639 3.94329 56.2273 4.27876C56.4966 4.61724 56.6525 4.99531 56.6947 5.41297C56.737 5.83062 56.642 6.26834 56.4098 6.72613C56.1836 7.17203 55.8894 7.50125 55.5274 7.7138C55.1685 7.9204 54.7713 8.01796 54.3361 8.00646C53.9039 7.98903 53.4619 7.86569 53.01 7.63645L51.7883 7.01661L50.5531 9.45121L49.26 8.79517ZM52.3629 5.88403L53.5936 6.5084C53.8016 6.61397 53.9996 6.66581 54.1874 6.66393C54.3843 6.65912 54.5605 6.60648 54.7161 6.50602C54.8807 6.40264 55.0112 6.25582 55.1078 6.06557C55.2073 5.86937 55.2487 5.67731 55.2319 5.48938C55.224 5.29852 55.164 5.12226 55.0516 4.9606C54.9452 4.80196 54.788 4.66986 54.5799 4.56429L53.3492 3.93992L52.3629 5.88403ZM65.5775 20.9061C65.2987 20.4515 65.1232 19.9804 65.0509 19.4929C64.9787 19.0054 65.0015 18.5261 65.1192 18.055C65.2369 17.5839 65.4459 17.1468 65.7461 16.7437C66.0463 16.3406 66.4322 15.9944 66.9039 15.7051C67.3756 15.4157 67.8591 15.2287 68.3545 15.1438C68.8556 15.0554 69.3382 15.0644 69.8023 15.1708C70.2756 15.2794 70.7103 15.4781 71.1064 15.7669C71.5083 16.0522 71.8503 16.4251 72.1327 16.8854C72.4115 17.34 72.5858 17.7962 72.6554 18.254C72.7251 18.7118 72.7105 19.147 72.6116 19.5596C72.5184 19.9687 72.3498 20.3185 72.1056 20.6091L70.9026 19.8336C71.1455 19.5282 71.2838 19.1736 71.3176 18.7696C71.3548 18.3714 71.2515 17.9733 71.0075 17.5755C70.7705 17.1891 70.4704 16.9039 70.1073 16.7199C69.7477 16.5417 69.3554 16.4695 68.9303 16.5033C68.511 16.5337 68.0883 16.6796 67.662 16.9411C67.2358 17.2025 66.9113 17.515 66.6885 17.8784C66.4656 18.2419 66.3522 18.6244 66.3481 19.0257C66.3475 19.4328 66.4657 19.8295 66.7027 20.2159C66.9467 20.6137 67.2547 20.8863 67.6266 21.0336C68.002 21.1865 68.3808 21.224 68.7631 21.146L68.909 22.5697C68.5394 22.6557 68.1483 22.6492 67.7357 22.5503C67.3288 22.448 66.9371 22.262 66.5606 21.9924C66.1841 21.7228 65.8564 21.3607 65.5775 20.9061ZM69.9988 27.0783L77.8039 28.1201L78.1779 29.9931L71.3695 33.9428L71.0601 32.3934L72.4881 31.578L71.9378 28.8224L70.3081 28.6277L69.9988 27.0783ZM73.2635 28.9757L73.6532 30.9272L76.9701 29.0514L77.0484 29.4437L73.2635 28.9757ZM72.5148 38.4139L79.8581 39.6705L79.6219 41.0505L75.4649 43.1697L75.5763 42.5191L78.8039 45.831L78.5677 47.2109L71.2245 45.9543L71.4707 44.5152L77.2073 45.4969L76.9715 46.045L73.7774 42.5968L73.8077 42.4194L77.9498 40.3281L78.0069 40.8248L72.2703 39.8431L72.5148 38.4139ZM70.5769 51.1308L77.0061 54.8948L75.5814 57.3284C75.322 57.7714 75.017 58.1143 74.6663 58.357C74.3122 58.6055 73.9255 58.7383 73.5061 58.7554C73.0866 58.7725 72.6554 58.6514 72.2124 58.392C71.7809 58.1394 71.47 57.826 71.2795 57.4519C71.0949 57.0812 71.0214 56.6789 71.059 56.2452C71.1024 55.8148 71.2521 55.381 71.5081 54.9437L72.2002 53.7614L69.8443 52.3822L70.5769 51.1308ZM73.2962 54.4031L72.599 55.594C72.4811 55.7954 72.4175 55.9898 72.4081 56.1775C72.401 56.3742 72.443 56.5533 72.5339 56.7146C72.6272 56.8851 72.7659 57.0243 72.95 57.1321C73.1399 57.2432 73.3291 57.2961 73.5177 57.2906C73.7087 57.2943 73.8882 57.2449 74.0564 57.1424C74.2211 57.0458 74.3624 56.8967 74.4803 56.6954L75.1775 55.5045L73.2962 54.4031ZM65.1372 60.6197L70.2749 66.0148L69.2249 67.0147L64.0872 61.6196L65.1372 60.6197ZM59.987 65.6885L63.3439 72.3394L62.3351 72.8486L56.2998 69.8571L56.7634 69.4663L59.2551 74.4031L57.9517 75.0609L54.5949 68.4101L55.6126 67.8964L61.6258 70.9551L61.2023 71.3144L58.6926 66.3419L59.987 65.6885ZM46.4745 71.2413C47.0047 71.1839 47.5089 71.2265 47.987 71.3693C48.4652 71.512 48.8952 71.737 49.2772 72.0444C49.6525 72.3524 49.9614 72.7281 50.2038 73.1712C50.4396 73.6151 50.5872 74.1121 50.6468 74.6622C50.7063 75.2123 50.6684 75.7294 50.533 76.2135C50.3984 76.7041 50.1836 77.1364 49.8888 77.5103C49.5881 77.8915 49.2224 78.1993 48.7918 78.4337C48.3619 78.6747 47.8785 78.8242 47.3416 78.8823C46.8114 78.9397 46.3245 78.9019 45.8809 78.7688C45.4374 78.6358 45.0503 78.4362 44.7198 78.1703C44.39 77.9109 44.1461 77.6087 43.988 77.2637L45.1939 76.5096C45.3725 76.8591 45.6371 77.1356 45.9877 77.339C46.3317 77.5432 46.7357 77.6202 47.1996 77.57C47.6503 77.5212 48.0365 77.3721 48.3582 77.1227C48.6733 76.874 48.9065 76.5504 49.0578 76.1518C49.2099 75.7598 49.259 75.3153 49.2052 74.8182C49.1514 74.3211 49.0046 73.8944 48.7649 73.5382C48.5252 73.1819 48.2215 72.9163 47.8539 72.7415C47.4797 72.5675 47.0672 72.5048 46.6165 72.5536C46.2652 72.5916 45.9447 72.6967 45.6548 72.8689C45.3584 73.0418 45.1314 73.2675 44.9738 73.5461C44.8169 73.8313 44.7578 74.1529 44.7965 74.5108L44.8611 75.1073L44.1336 74.6127L46.8478 74.319L46.979 75.5319L43.4795 75.9106L43.3966 75.1451C43.3328 74.5552 43.3763 74.0274 43.5271 73.5618C43.6719 73.1036 43.8939 72.7074 44.193 72.3733C44.4929 72.0458 44.8437 71.7865 45.2455 71.5955C45.6406 71.4053 46.0503 71.2872 46.4745 71.2413ZM31.9608 71.6544L26.3969 77.2264L24.6811 76.3872L25.6726 68.5788L27.092 69.273L26.8737 70.9029L29.3979 72.1375L30.5415 70.9602L31.9608 71.6544ZM28.4716 73.0982L26.684 72.2239L26.1625 75.9986L25.8032 75.8228L28.4716 73.0982ZM19.5025 64.5677C19.9079 64.9825 20.1832 65.4359 20.3284 65.9279C20.4688 66.4245 20.4797 66.9126 20.361 67.3921C20.233 67.8715 19.9758 68.2999 19.5896 68.6773L16.1853 72.0042L15.1719 70.9672L18.5118 67.7032C18.7264 67.4935 18.8729 67.2571 18.9513 66.994C19.0298 66.7309 19.0375 66.467 18.9746 66.2023C18.9068 65.9422 18.7681 65.7049 18.5584 65.4903C18.3488 65.2758 18.117 65.134 17.8633 65.0651C17.6 64.9961 17.336 64.9978 17.0712 65.0702C16.8063 65.1425 16.5666 65.2836 16.3521 65.4933L13.0122 68.7573L11.9917 67.7131L15.396 64.3862C15.7822 64.0088 16.2188 63.7639 16.7056 63.6517C17.1877 63.544 17.6754 63.5662 18.1687 63.718C18.6525 63.8697 19.0971 64.1529 19.5025 64.5677ZM12.4386 56.3552C12.6364 56.7779 12.7459 57.2087 12.7673 57.6477C12.7826 58.0895 12.7105 58.5096 12.551 58.9081C12.3915 59.3066 12.1512 59.6582 11.8301 59.963L10.8415 59.1006C11.1428 58.7536 11.3316 58.3782 11.4077 57.9746C11.4778 57.5738 11.4253 57.1862 11.2501 56.8118C11.1541 56.6065 11.039 56.4469 10.9047 56.3331C10.7677 56.2132 10.625 56.1364 10.4768 56.1027C10.3225 56.0718 10.1669 56.0931 10.0099 56.1666C9.83476 56.2485 9.71224 56.372 9.64232 56.5372C9.56957 56.6964 9.54922 56.9046 9.58128 57.162L9.76999 58.6745C9.84668 59.279 9.78857 59.7919 9.59565 60.2134C9.39669 60.6376 9.07076 60.9557 8.61787 61.1676C8.22536 61.3512 7.83597 61.4156 7.44968 61.3608C7.05735 61.3088 6.69916 61.1489 6.3751 60.8809C6.04217 60.6098 5.76977 60.2478 5.5579 59.7949C5.36863 59.3903 5.26434 58.9865 5.24503 58.5833C5.22289 58.1742 5.28072 57.7865 5.41852 57.4202C5.55632 57.054 5.77209 56.7286 6.06582 56.444L7.05014 57.2973C6.78338 57.5766 6.62016 57.8885 6.56048 58.2329C6.50079 58.5773 6.55005 58.9186 6.70825 59.2567C6.79864 59.45 6.91378 59.6096 7.05365 59.7355C7.18466 59.8582 7.33033 59.9336 7.49065 59.9616C7.64814 59.9836 7.80237 59.9593 7.95333 59.8887C8.12845 59.8068 8.25701 59.6804 8.33901 59.5095C8.41215 59.3355 8.43268 59.1198 8.40062 58.8625L8.21499 57.4037C8.12982 56.7811 8.18209 56.2635 8.3718 55.8509C8.55868 55.4323 8.87555 55.1185 9.3224 54.9094C9.71491 54.7258 10.1102 54.666 10.5081 54.7301C10.9033 54.7881 11.2687 54.9557 11.6045 55.2329C11.9402 55.5101 12.2183 55.8842 12.4386 56.3552ZM8.64292 47.913L2.50913 48.6674L2.74227 50.5631L1.48176 50.7181L0.840935 45.5074L2.10144 45.3524L2.33092 47.2183L8.46471 46.464L8.64292 47.913ZM7.47281 39.6393L0.159447 38.2191L0.695148 35.4606C0.793011 34.9567 0.967784 34.5288 1.21947 34.177C1.47115 33.8252 1.79139 33.575 2.18019 33.4264C2.57025 33.2713 3.01724 33.2426 3.52116 33.3405C4.01854 33.4371 4.42105 33.6375 4.72869 33.9417C5.03633 34.2459 5.2371 34.6109 5.331 35.0366L8.58044 33.9359L8.26779 35.5458L4.69716 36.7268L5.41818 35.899L5.06931 37.6955L7.74924 38.2159L7.47281 39.6393ZM3.8226 37.4534L4.08569 36.0987C4.1289 35.8762 4.12385 35.6749 4.07055 35.4947C4.01197 35.3068 3.91305 35.1517 3.77378 35.0296C3.62923 34.8997 3.45225 34.8144 3.24283 34.7737C3.02686 34.7318 2.83081 34.7446 2.65468 34.8123C2.47328 34.8721 2.32025 34.9782 2.19558 35.1306C2.07218 35.2764 1.98888 35.4606 1.94567 35.6831L1.68258 37.0378L3.8226 37.4534ZM9.47636 28.7651L2.85674 25.347L3.522 24.0586L10.1416 27.4767L9.47636 28.7651ZM12.6916 22.2333L8.5427 15.5407L9.75271 14.0628L17.1261 16.8172L16.1252 18.0397L14.5887 17.4538L12.8086 19.6279L13.6925 21.0108L12.6916 22.2333ZM12.0857 18.5062L13.3464 16.9664L9.79157 15.5939L10.045 15.2844L12.0857 18.5062Z" fill="#F54943"></path>
</svg>