<?xml version="1.0"?>
<svg id="Ebene_2" data-name="Ebene 2" xmlns="http://www.w3.org/2000/svg" viewBox="0 0 877.89 185.2">
  <defs>
    
  </defs>
  <g id="Ebene_1-2" data-name="Ebene 1">
    <g id="Reelize_Logo" data-name="Reelize Logo">
      <path class="cls-2" d="M173.51,182.4h-49.27l-38.25-64.32h-43.15v64.32H0V3.73h99.76c40.39,0,73.75,18.63,73.75,56.66,0,26.8-13.77,43.65-41.01,52.58l41.01,69.43ZM129.45,61.16c0-16.08-11.63-22.72-30.6-22.72h-56v45.94h56c19.89,0,30.6-7.66,30.6-23.23Z"></path>
      <path class="cls-2" d="M314.5,115.85c0,5.08-.31,8.64-.61,11.18h-95.87c1.53,18.29,17.71,25.15,32.97,25.15,11.6,0,21.37-3.56,27.48-9.4l29.92,20.83c-12.82,13.72-36.03,21.59-57.4,21.59-46.1,0-75.41-27.18-75.41-69.34s30.84-69.6,71.44-69.6c42.74,0,67.47,31.5,67.47,69.6ZM273.59,100.62c-1.22-11.94-9.77-23.88-28.7-23.88-15.27,0-24.73,10.41-26.26,23.88h54.95Z"></path>
      <path class="cls-2" d="M463.58,115.85c0,5.08-.3,8.64-.61,11.18h-95.35c1.52,18.29,17.61,25.15,32.8,25.15,11.54,0,21.26-3.56,27.33-9.4l29.76,20.83c-12.75,13.72-35.83,21.59-57.09,21.59-45.86,0-75.01-27.18-75.01-69.34s30.67-69.6,71.06-69.6c42.51,0,67.11,31.5,67.11,69.6ZM422.89,100.62c-1.22-11.94-9.72-23.88-28.55-23.88-15.18,0-24.6,10.41-26.12,23.88h54.66Z"></path>
      <path class="cls-2" d="M517.61,182.4h-41.98V21.43l41.98-16.83v177.8Z"></path>
      <path class="cls-1" d="M579.24,20.07c0,10.92-9.35,20.07-22.44,20.07s-21.82-9.14-21.82-20.07,8.73-20.07,21.82-20.07,22.44,9.14,22.44,20.07ZM577.81,182.4h-42.01V49.05h42.01v133.35Z"></path>
      <path class="cls-1" d="M728.99,182.4h-132.62v-25.4l58.37-57.66c6.42-6.35,15.89-14.99,20.17-19.05-5.81.25-18.34.51-26.28.51h-47.06v-31.75h127.43v25.4l-56.53,57.66c-6.42,6.6-15.58,14.99-19.86,19.05,5.81-.25,18.34-.51,26.28-.51h50.12v31.75Z"></path>
      <path class="cls-1" d="M877.89,115.85c0,5.08-.3,8.64-.61,11.18h-95.54c1.52,18.29,17.65,25.15,32.86,25.15,11.56,0,21.3-3.56,27.38-9.4l29.82,20.83c-12.78,13.72-35.9,21.59-57.2,21.59-45.95,0-75.16-27.18-75.16-69.34s30.73-69.6,71.2-69.6c42.6,0,67.24,31.5,67.24,69.6ZM837.11,100.62c-1.22-11.94-9.74-23.88-28.6-23.88-15.21,0-24.65,10.41-26.17,23.88h54.77Z"></path>
    </g>
  </g>
</svg>